<?xml version="1.0" encoding="UTF-8"?>
<svg xmlns="http://www.w3.org/2000/svg" xmlns:xlink="http://www.w3.org/1999/xlink" width="2222px" height="2500px" viewBox="0 0 1667 1875" version="1.1">
<g id="surface1">
<path style=" stroke:none;fill-rule:nonzero;fill:rgb(36.078431%,55.294118%,73.72549%);fill-opacity:1;" d="M 1664.195312 551.507812 C 1664.179688 520.066406 1657.453125 492.28125 1643.851562 468.4375 C 1630.488281 444.988281 1610.476562 425.335938 1583.636719 409.796875 C 1362.074219 282.082031 1140.300781 154.757812 918.808594 26.910156 C 859.097656 -7.550781 801.203125 -6.296875 741.933594 28.664062 C 653.742188 80.65625 212.21875 333.539062 80.648438 409.726562 C 26.464844 441.082031 0.0976562 489.070312 0.0859375 551.449219 C 0 808.292969 0.0859375 1065.128906 0 1321.976562 C 0.0117188 1352.730469 6.453125 1379.972656 19.457031 1403.460938 C 32.824219 1427.617188 53.117188 1447.8125 80.574219 1463.703125 C 212.152344 1539.886719 653.738281 1792.75 741.90625 1844.757812 C 801.203125 1879.734375 859.097656 1880.984375 918.828125 1846.507812 C 1140.324219 1718.65625 1362.113281 1591.339844 1583.707031 1463.625 C 1611.167969 1447.738281 1631.460938 1427.53125 1644.828125 1403.394531 C 1657.8125 1379.90625 1664.265625 1352.664062 1664.277344 1321.90625 C 1664.277344 1321.90625 1664.277344 808.355469 1664.195312 551.507812 "/>
<path style=" stroke:none;fill-rule:nonzero;fill:rgb(10.196078%,27.45098%,45.490196%);fill-opacity:1;" d="M 834.683594 934.210938 L 19.457031 1403.460938 C 32.824219 1427.617188 53.117188 1447.8125 80.574219 1463.703125 C 212.152344 1539.886719 653.738281 1792.75 741.90625 1844.757812 C 801.203125 1879.734375 859.097656 1880.984375 918.828125 1846.507812 C 1140.324219 1718.65625 1362.113281 1591.339844 1583.707031 1463.625 C 1611.167969 1447.738281 1631.460938 1427.53125 1644.828125 1403.394531 L 834.683594 934.210938 "/>
<path style=" stroke:none;fill-rule:nonzero;fill:rgb(10.196078%,27.45098%,45.490196%);fill-opacity:1;" d="M 593.222656 1073.207031 C 640.660156 1155.996094 729.839844 1211.839844 832.140625 1211.839844 C 935.070312 1211.839844 1024.753906 1155.289062 1071.953125 1071.613281 L 834.683594 934.210938 L 593.222656 1073.207031 "/>
<path style=" stroke:none;fill-rule:nonzero;fill:rgb(10.588235%,34.901961%,55.686275%);fill-opacity:1;" d="M 1664.195312 551.507812 C 1664.179688 520.066406 1657.453125 492.28125 1643.851562 468.4375 L 834.683594 934.210938 L 1644.828125 1403.394531 C 1657.8125 1379.90625 1664.265625 1352.664062 1664.277344 1321.90625 C 1664.277344 1321.90625 1664.277344 808.355469 1664.195312 551.507812 "/>
<path style=" stroke:none;fill-rule:nonzero;fill:rgb(100%,100%,100%);fill-opacity:1;" d="M 1619.648438 967.75 L 1556.339844 967.75 L 1556.339844 1031.050781 L 1493.019531 1031.050781 L 1493.019531 967.75 L 1429.71875 967.75 L 1429.71875 904.46875 L 1493.019531 904.46875 L 1493.019531 841.179688 L 1556.339844 841.179688 L 1556.339844 904.46875 L 1619.648438 904.46875 L 1619.648438 967.75 M 1388.644531 967.75 L 1325.34375 967.75 L 1325.34375 1031.050781 L 1262.035156 1031.050781 L 1262.035156 967.75 L 1198.730469 967.75 L 1198.730469 904.46875 L 1262.035156 904.46875 L 1262.035156 841.179688 L 1325.34375 841.179688 L 1325.34375 904.46875 L 1388.644531 904.46875 L 1388.644531 967.75 "/>
<path style=" stroke:none;fill-rule:nonzero;fill:rgb(100%,100%,100%);fill-opacity:1;" d="M 1071.953125 1071.613281 C 1024.753906 1155.289062 935.070312 1211.839844 832.140625 1211.839844 C 729.839844 1211.839844 640.660156 1155.996094 593.222656 1073.207031 C 569.394531 1031.664062 556.878906 984.597656 556.929688 936.710938 C 556.929688 784.765625 680.148438 661.585938 832.140625 661.585938 C 933.78125 661.585938 1022.488281 716.730469 1070.160156 798.675781 L 1310.710938 660.199219 C 1215.101562 495.203125 1036.59375 384.199219 832.140625 384.199219 C 526.894531 384.199219 279.457031 631.570312 279.457031 936.710938 C 279.457031 1036.816406 306.097656 1130.695312 352.65625 1211.667969 C 448.027344 1377.539062 627.039062 1489.226562 832.140625 1489.226562 C 1037.617188 1489.226562 1216.910156 1377.089844 1312.144531 1210.730469 L 1071.953125 1071.613281 "/>
</g>
</svg>
